<?xml version="1.0" encoding="utf-8"?>
<!-- Generator: Adobe Illustrator 15.1.0, SVG Export Plug-In . SVG Version: 6.00 Build 0)  -->
<!DOCTYPE svg PUBLIC "-//W3C//DTD SVG 1.1//EN" "http://www.w3.org/Graphics/SVG/1.1/DTD/svg11.dtd">
<svg version="1.1" id="Layer_1" xmlns="http://www.w3.org/2000/svg" xmlns:xlink="http://www.w3.org/1999/xlink" x="0px" y="0px"
	 width="511px" height="504px" viewBox="0.5 -11.25 511 504" enable-background="new 0.5 -11.25 511 504" xml:space="preserve">
<path fill="#777777" d="M474,266.25l-218,226l-218-226c-50-50-50-131,0-181s131-50,181,0l37,45l37-45c50-50,131-50,181,0
	S524,216.25,474,266.25z M338,130.251l-82,90l-82-90c-25-25-66-25-91,0s-25,65,0,90l173,182l173-182c25-25,25-65,0-90
	S363,105.251,338,130.251z"/>
</svg>
