<svg xmlns="http://www.w3.org/2000/svg" viewBox="0 0 1030 1030"><symbol id="icon-clock" viewBox="56 -56 512 512" preserveAspectRatio="xMidYMid meet"><path d="M385 319L280 213V72h64v115l87 86-46 46zM312-56C171-56 56 59 56 200s115 256 256 256 256-115 256-256S453-56 312-56zm0 448c-106 0-192-86-192-192S206 8 312 8s192 86 192 192-86 192-192 192z"/></symbol><symbol id="icon-heart" viewBox="56 -56 512 512" preserveAspectRatio="xMidYMid meet"><path d="M530 198L312 424 94 198C44 148 44 67 94 17s131-50 181 0l37 45 37-45c50-50 131-50 181 0s50 131 0 181z"/></symbol><symbol id="icon-plus" viewBox="0 0 512 512" preserveAspectRatio="xMidYMid meet"><path d="M157.330682,237.133001 C161.570557,232.971642 166.831064,230.537676 173.112361,229.83103 C179.393658,229.124384 185.714117,228.888839 192.07393,229.124388 C198.433743,229.359936 204.361628,229.281421 209.857762,228.88884 C215.353897,228.496259 218.965588,227.200761 220.692944,225.002307 C221.792171,223.431983 222.852124,218.367764 223.872835,209.809497 C224.893546,201.251231 225.992756,192.771608 227.170499,184.370374 C228.348242,175.969139 231.567358,168.274667 236.827944,161.286724 C242.08853,154.298782 249.115625,150.883378 257.90944,151.04041 C264.190737,151.197443 269.254956,152.532198 273.10225,155.044717 C276.949545,157.557236 279.619056,161.286699 281.110863,166.23322 C282.602671,171.179741 283.584109,175.969158 284.055207,180.601614 C284.526304,185.234071 284.879621,191.201213 285.11517,198.50322 C285.350719,205.805227 285.782551,211.576082 286.410681,215.815957 C287.823973,224.45274 297.481321,228.771066 315.383016,228.771066 C332.656582,228.928099 344.747896,231.008747 351.657323,235.013074 C358.566749,239.0174 362.02141,245.18083 362.02141,253.503548 C362.02141,256.958261 361.628835,260.177377 360.843673,263.160993 C360.058511,266.144609 359.11633,268.696347 358.017104,270.816285 C356.917877,272.936223 355.308319,274.899098 353.188381,276.704971 C351.068443,278.510844 349.144825,280.002629 347.417469,281.180373 C345.690112,282.358116 343.334661,283.378811 340.351045,284.242489 C337.367429,285.106168 334.854949,285.812803 332.813527,286.362416 C330.772106,286.91203 327.945565,287.38312 324.333819,287.775701 C320.722074,288.168282 317.93479,288.403827 315.971885,288.482343 C314.00898,288.560859 311.064666,288.717889 307.138856,288.953438 C303.213046,289.188987 300.46502,289.385274 298.894695,289.542307 C294.497788,289.542307 291.278672,292.054788 289.23725,297.079825 C287.195829,302.104862 285.821816,308.111262 285.11517,315.099204 C284.408524,322.087147 283.427086,329.074984 282.170827,336.062927 C280.914568,343.050869 278.048769,348.900239 273.573345,353.611211 C269.097922,358.322184 262.777462,360.442089 254.611776,359.970992 C250.842998,359.499895 247.506109,358.204397 244.60101,356.084459 C241.69591,353.964522 239.340459,351.020208 237.534587,347.25143 C235.728714,343.482652 234.236928,339.910218 233.059185,336.534022 C231.881442,333.157825 230.978519,328.800241 230.35039,323.461138 C229.72226,318.122036 229.290427,314.078512 229.054879,311.330445 C228.81933,308.582378 228.623042,304.852914 228.46601,300.141942 C228.151945,295.588002 225.246889,292.211855 219.750755,290.013402 C214.25462,287.814948 207.698615,286.283905 200.082543,285.420226 C192.466471,284.556548 184.889771,283.41808 177.352215,282.004789 C169.814659,280.591497 163.454942,277.725698 158.272872,273.407307 C153.090802,269.088916 150.578321,263.082516 150.735354,255.387928 C150.892386,247.379274 153.090807,241.29436 157.330682,237.133001 Z"/></symbol><symbol id="icon-shoe-dancing" viewBox="0 0 132 132" preserveAspectRatio="xMidYMid meet"><path fill="#9758A3" d="M118.398 52.224c.005-.075.02-.196.033-.325.06-.5.08-.77.07-.97l-.75-24.76c6.2-.42 9.96-2.95 10.18-6.96.04-.69-.23-1.36-.73-1.83s-1.18-.7-1.86-.62l-10.42 1.19c-1.21.13-2.11 1.18-2.07 2.39l.79 24.43c-1.08-.5-2.26-.92-3.51-1.19-.98-.21-1.93-.29-2.83-.29-4.71 0-7.86 2.88-8.24 7.45-.19 2.28.5 4.43 1.97 6.06 1.73 1.9 4.42 3.22 7.4 3.22h.21c5.3 0 8.96-3.53 9.68-6.97.07-.217.11-.603.11-.846z" class="note animate"/><path fill="#AA7DB7" d="M113.152 2.14c.055-.55-.126-1.097-.498-1.504-.372-.407-.895-.665-1.45-.633l-8.658.076c-.528 0-1.032.22-1.394.6-.363.38-.553.89-.528 1.42l.97 20.29c-.9-.41-1.894-.76-2.932-.97-.763-.15-1.506-.25-2.208-.25-3.943 0-6.656 2.41-6.91 6.22-.128 1.9.465 4.27 1.715 5.61 1.45 1.56 3.71 3.01 6.18 3.01 4.5 0 7.56-3.44 8.12-6.37.05-.18.08-.556.08-.756 0-.066.01-.355.02-.46.03-.41.05-.73.04-.9l-.92-20.44c6.85-.038 8.18-3.144 8.36-4.97zM97.507 32.98v.003-.003z" class="note animate"/><g class="shoe animate"><path fill="#D2D3D4" d="M2.493 71.232S4.94 45.53 26.156 28.802c0 0 3.672-2.855 7.344 0S30.724 51.737 63.368 53.22c0 0 1.187-25.67 13.355-22.85 12.54 2.904 4.102 23.115 4.102 23.115s29.782 35.448 43.857 47.098 3.26 21.856 3.26 21.856-16.2 14.17-46.3-1.85C58.61 108.34 2.49 71.23 2.49 71.23z"/><path fill="#9758A3" d="M8.747 50.79s42.75 22.314 41.405 48.405l39.035 21.688s9.793-29.677-75.79-78.223l-4.65 8.13zm28.31-21.838l-.007.086-.008.06c-.002.04-.005.09-.01.146-.01.228-.022.593-.003 1.076.02.96.16 2.39.59 4.047.2.834.51 1.708.88 2.617.37.91.86 1.82 1.42 2.737.59.9 1.25 1.8 2.04 2.63.38.43.81.82 1.23 1.22.45.37.87.79 1.37 1.12l.72.53c.24.18.5.33.75.49.25.16.5.33.76.48l.79.43c.52.3 1.06.54 1.61.79.53.26 1.08.47 1.63.67l.81.31.82.254c.54.157 1.06.355 1.59.468l1.54.38c.5.118.99.19 1.46.286.94.196 1.81.305 2.59.406.39.05.75.1 1.09.14l.93.08 1.774.15.08.01c.876.073 1.53.843 1.454 1.72-.07.825-.76 1.45-1.57 1.46l-1.88.017-.997.01c-.364-.012-.756-.03-1.175-.043-.838-.03-1.786-.066-2.82-.18-.517-.056-1.058-.088-1.616-.167l-1.73-.26c-.595-.07-1.2-.234-1.82-.355l-.94-.2-.956-.26c-.64-.172-1.3-.35-1.946-.593-.657-.22-1.32-.445-1.97-.74l-.99-.42c-.328-.15-.648-.32-.974-.48-.32-.166-.653-.32-.97-.503l-.95-.56c-.644-.36-1.23-.82-1.845-1.24-.588-.456-1.18-.908-1.72-1.406-1.116-.973-2.1-2.07-2.988-3.18-.86-1.13-1.62-2.29-2.23-3.443-.61-1.16-1.12-2.29-1.5-3.364-.77-2.15-1.14-4.03-1.31-5.384-.09-.673-.126-1.223-.146-1.62l-.01-.263c-.002-.097.118-.177.117-.24 0-.106.12-.16.12-.16v-.01c0-1.97 1.46-3.57 3.43-3.58 1.97-.01 3.51 1.58 3.52 3.55 0 .114-.065.232-.074.342zm44.713 22.09s2.372-6.38 1.827-12.44c0 0-9.248-1.565-9.248 6.752 0 4.65 2.89 3.688 6.47 5.688h.94zm.592 25.65c-.66 0-1.315-.273-1.785-.807-.865-.985-.77-2.485.217-3.35l9.857-8.66c.99-.865 2.49-.77 3.35.217.87.985.77 2.485-.21 3.35l-9.85 8.66c-.45.395-1.01.59-1.56.59zm-7.122-8.31c-.66 0-1.315-.272-1.785-.806-.865-.985-.77-2.485.217-3.35l9.857-8.66c.98-.865 2.48-.77 3.35.217.86.985.76 2.485-.22 3.35l-9.86 8.66c-.45.395-1.01.59-1.57.59zM89.485 85c-.66 0-1.315-.272-1.785-.806-.865-.985-.77-2.485.217-3.35l10.01-8.795c.986-.87 2.486-.77 3.35.21.866.98.77 2.48-.216 3.35l-10.01 8.8c-.45.39-1.01.59-1.56.59zm8.31 8.31c-.66 0-1.316-.272-1.786-.806-.87-.985-.77-2.485.21-3.35l9.06-7.96c.98-.865 2.48-.766 3.35.218.86.985.77 2.485-.22 3.35l-9.06 7.96c-.45.394-1.01.59-1.57.59zm8.31 8.31c-.66 0-1.316-.273-1.786-.807-.87-.985-.77-2.485.21-3.35l9.06-7.96c.98-.865 2.48-.766 3.35.218.86.99.77 2.49-.22 3.35l-9.06 7.96c-.45.4-1.01.59-1.57.59zM7.485 67.27l4.72 3.292 12.522 8.59c2.592 1.776 5.42 3.67 8.41 5.676l9.417 6.283c3.273 2.17 6.654 4.42 10.11 6.66 3.456 2.25 6.98 4.5 10.508 6.75 3.535 2.23 7.073 4.46 10.578 6.6 1.75 1.09 3.498 2.12 5.22 3.15 1.72 1.05 3.44 2.01 5.124 2.97l1.26.72c.323.18.778.41 1.178.6.827.41 1.665.79 2.5 1.16 1.67.74 3.333 1.41 4.97 2 3.28 1.17 6.437 2.11 9.387 2.7 2.94.62 5.66.94 8.05 1.05 2.39.13 4.45-.03 6.1-.25.83-.09 1.55-.26 2.18-.37.62-.153 1.15-.28 1.57-.4l1.27-.408.17-.06c1.59-.51 3.3.37 3.81 1.966.51 1.596-.37 3.304-1.97 3.816l-.11.037-1.62.45c-.53.13-1.187.256-1.95.43-.77.12-1.66.3-2.65.39-1.99.23-4.4.3-7.11.17-2.72-.145-5.74-.524-8.95-1.216-3.21-.685-6.628-1.62-10.14-2.85-1.76-.61-3.55-1.29-5.36-2.04-.91-.38-1.818-.78-2.73-1.207-.47-.22-.89-.42-1.43-.695l-1.32-.697c-1.76-.937-3.564-1.876-5.335-2.878-1.78-.992-3.6-1.985-5.39-3.026-3.61-2.052-7.24-4.186-10.87-6.322-3.62-2.15-7.23-4.3-10.77-6.45l-10.4-6.29c-6.737-4.09-12.98-7.97-18.35-11.27l-17.84-11.1c-2.23-1.38-2.92-4.31-1.54-6.54 1.38-2.23 4.31-2.92 6.54-1.54.07.043.138.09.204.134l.03.02zm12.774-3.69l14.76 11.35c.94.725 1.12 2.077.39 3.02-.68.89-1.94 1.093-2.87.503l-15.7-10.015c-1.39-.882-1.79-2.72-.91-4.102.88-1.383 2.72-1.79 4.1-.907.07.04.14.09.21.15z"/></g></symbol></svg>